<?xml version="1.0" encoding="UTF-8"?>
<svg width="19px" height="20px" viewBox="0 0 19 20" version="1.1" xmlns="http://www.w3.org/2000/svg" xmlns:xlink="http://www.w3.org/1999/xlink">
    <title>instagram-logo-fill-svgrepo-com</title>
    <g id="Page-1" stroke="none" stroke-width="1" fill="none" fill-rule="evenodd">
        <g id="Large-Devices:-Desktops---12-col-Copy-3" transform="translate(-972.000000, -2685.000000)" fill="#000000" fill-rule="nonzero">
            <g id="instagram-logo-fill-svgrepo-com" transform="translate(972.000000, 2685.040964)">
                <path d="M12.54,9.5 C12.54,11.1789456 11.1789456,12.54 9.5,12.54 C7.82105436,12.54 6.46,11.1789456 6.46,9.5 C6.46,7.82105436 7.82105436,6.46 9.5,6.46 C11.1781498,6.46191976 12.5380802,7.82185019 12.54,9.5 L12.54,9.5 Z M19,5.32 L19,13.68 C18.996674,16.6167761 16.6167761,18.996674 13.68,19 L5.32,19 C2.38322391,18.996674 0.00332601093,16.6167761 0,13.68 L0,5.32 C0.00332601093,2.38322391 2.38322391,0.00332601093 5.32,0 L13.68,0 C16.6167761,0.00332601093 18.996674,2.38322391 19,5.32 Z M14.06,9.5 C14.06,6.98158154 12.0184185,4.94 9.5,4.94 C6.98158154,4.94 4.94,6.98158154 4.94,9.5 C4.94,12.0184185 6.98158154,14.06 9.5,14.06 C12.0172387,14.0571541 14.0571541,12.0172387 14.06,9.5 Z M15.58,4.56 C15.58,3.93039539 15.0696046,3.42 14.44,3.42 C13.8103954,3.42 13.3,3.93039539 13.3,4.56 C13.3,5.18960461 13.8103954,5.7 14.44,5.7 C15.0696046,5.7 15.58,5.18960461 15.58,4.56 Z" id="Shape"></path>
            </g>
        </g>
    </g>
</svg>