<?xml version="1.0" encoding="UTF-8"?>
<svg width="19px" height="20px" viewBox="0 0 19 20" version="1.1" xmlns="http://www.w3.org/2000/svg" xmlns:xlink="http://www.w3.org/1999/xlink">
    <title>linkedin</title>
    <g id="Page-1" stroke="none" stroke-width="1" fill="none" fill-rule="evenodd">
        <g id="Large-Devices:-Desktops---12-col-Copy-3" transform="translate(-927.000000, -2685.000000)" fill="#000000" fill-rule="nonzero">
            <g id="linkedin" transform="translate(927.000000, 2685.040964)">
                <path d="M17.5950704,0.000126229041 L1.40492958,0.000126229041 C1.03737838,-0.00481464714 0.682856919,0.135466409 0.41937383,0.390235057 C0.155890741,0.645003705 0.00503471502,0.993385281 0,1.35872216 L0,17.6412778 C0.00503471502,18.0066147 0.155890741,18.3549963 0.41937383,18.6097649 C0.682856919,18.8645336 1.03737838,19.0048146 1.40492958,18.9998738 L17.5950704,18.9998738 C17.9626216,19.0048146 18.3171431,18.8645336 18.5806262,18.6097649 C18.8441093,18.3549963 18.9949653,18.0066147 19,17.6412778 L19,1.35872216 C18.9949653,0.993385281 18.8441093,0.645003705 18.5806262,0.390235057 C18.3171431,0.135466409 17.9626216,-0.00481464714 17.5950704,0.000126229041 L17.5950704,0.000126229041 Z M5.76307847,15.9028253 L2.89587525,15.9028253 L2.89587525,7.35305859 L5.76307847,7.35305859 L5.76307847,15.9028253 Z M4.32947686,6.15609125 L4.32947686,6.15609125 C3.5060503,6.15609125 2.83853119,5.49259535 2.83853119,4.67413169 C2.83853119,3.85566802 3.5060503,3.19217213 4.32947686,3.19217213 C4.90244972,3.12758349 5.46197,3.39507835 5.76888232,3.88032158 C6.07579464,4.36556481 6.07579464,4.98269857 5.76888232,5.4679418 C5.46197,5.95318502 4.90244972,6.22067989 4.32947686,6.15609125 L4.32947686,6.15609125 Z M16.1041247,15.9028253 L13.2369215,15.9028253 L13.2369215,11.3144505 C13.2369215,10.1649819 12.8259557,9.41450233 11.7842052,9.41450233 C11.1238698,9.41930742 10.5364764,9.83255409 10.3123742,10.4499741 C10.2375827,10.6732562 10.2051751,10.9084064 10.2168008,11.1434552 L10.2168008,15.8933255 L7.34959759,15.8933255 C7.34959759,15.8933255 7.34959759,8.12253759 7.34959759,7.34355884 L10.2168008,7.34355884 L10.2168008,8.55002592 C10.7476164,7.63450476 11.7444852,7.08605796 12.806841,7.12506481 C14.7183099,7.12506481 16.1041247,8.35053137 16.1041247,10.9819596 L16.1041247,15.9028253 Z" id="Shape"></path>
            </g>
        </g>
    </g>
</svg>