<?xml version="1.0" encoding="utf-8"?>
<!-- Generator: Adobe Illustrator 27.0.1, SVG Export Plug-In . SVG Version: 6.00 Build 0)  -->
<svg version="1.1" id="Calque_1" xmlns="http://www.w3.org/2000/svg" xmlns:xlink="http://www.w3.org/1999/xlink" x="0px" y="0px"
	 viewBox="0 0 288.8 334.7" style="enable-background:new 0 0 288.8 334.7;" xml:space="preserve">
<style type="text/css">
	.st0{fill-rule:evenodd;clip-rule:evenodd;fill:#D6F4C8;}
	.st1{fill:none;stroke:#000000;stroke-width:2;stroke-miterlimit:10;}
	.st2{fill-rule:evenodd;clip-rule:evenodd;fill:#FFB0CA;}
	.st3{clip-path:url(#SVGID_00000031905290571934614930000012649750549988006028_);}
	.st4{font-family:'Helvetica-Light';}
	.st5{font-size:47.9985px;}
	.st6{clip-path:url(#SVGID_00000134943373164754273990000009658525134907321012_);enable-background:new    ;}
	.st7{clip-path:url(#SVGID_00000036249933447062467250000003281366806975514295_);}
	.st8{clip-path:url(#SVGID_00000070096809728545053920000000582592915980571831_);fill:#FFF900;}
	
		.st9{clip-path:url(#SVGID_00000121979518408151920170000003470072072630007437_);fill:none;stroke:#000000;stroke-width:4;stroke-miterlimit:5;}
	.st10{font-size:45px;}
	.st11{clip-path:url(#SVGID_00000065043687971112544270000012435213167842939026_);}
	.st12{font-size:48px;}
</style>
<g>
	<path class="st0" d="M256,298.8c-24.6,5.7-49.3,11.4-73.9,17.1c-3.2,0.7-3.2,0.7-3.9-2.5c-1.2-5.4-2.5-10.9-3.8-16.3
		c-0.2-0.9-0.4-1.7-0.7-3c-1.4,0.3-2.5,0.6-3.6,0.8c-25.2,5.8-50.4,11.6-75.6,17.5c-2.5,0.6-3.3,0-3.8-2.5
		c-2.5-11.2-5.2-22.4-7.6-33.6c-0.5-2.4-1.4-2.8-3.7-2.2c-5.7,1.5-11.5,2.6-17.3,4.1c-1.8,0.4-2.5,0-2.9-1.8
		c-3.1-13.8-6.3-27.6-9.6-41.3c-0.6-2.5,0.7-2.7,2.5-3.1c32.9-7.6,65.8-15.2,98.8-22.8c31.2-7.2,62.4-14.4,93.6-21.6
		c3.3-0.8,3.3-0.8,4.1,2.5c6.1,26.4,12.2,52.9,18.4,79.3c0.6,2.4,0.2,3.5-2.4,3.9c-2.7,0.4-5.3,1.3-8,1.8c-1.9,0.3-2.4,1.1-1.9,3
		c1.4,5.7,2.7,11.5,4,17.3c0.2,0.8,0.4,1.6,0.6,2.6C257.8,298.3,256.9,298.6,256,298.8z"/>
	<path class="st1" d="M256,298.8c-24.6,5.7-49.3,11.4-73.9,17.1c-3.2,0.7-3.2,0.7-3.9-2.5c-1.2-5.4-2.5-10.9-3.8-16.3
		c-0.2-0.9-0.4-1.7-0.7-3c-1.4,0.3-2.5,0.6-3.6,0.8c-25.2,5.8-50.4,11.6-75.6,17.5c-2.5,0.6-3.3,0-3.8-2.5
		c-2.5-11.2-5.2-22.4-7.6-33.6c-0.5-2.4-1.4-2.8-3.7-2.2c-5.7,1.5-11.5,2.6-17.3,4.1c-1.8,0.4-2.5,0-2.9-1.8
		c-3.1-13.8-6.3-27.6-9.6-41.3c-0.6-2.5,0.7-2.7,2.5-3.1c32.9-7.6,65.8-15.2,98.8-22.8c31.2-7.2,62.4-14.4,93.6-21.6
		c3.3-0.8,3.3-0.8,4.1,2.5c6.1,26.4,12.2,52.9,18.4,79.3c0.6,2.4,0.2,3.5-2.4,3.9c-2.7,0.4-5.3,1.3-8,1.8c-1.9,0.3-2.4,1.1-1.9,3
		c1.4,5.7,2.7,11.5,4,17.3c0.2,0.8,0.4,1.6,0.6,2.6C257.8,298.3,256.9,298.6,256,298.8z"/>
	<path class="st2" d="M226.4,223.1c-9.8-0.6-19.2-1.1-28.7-1.6c-21.1-1.2-42.2-2.4-63.3-3.7c-12.7-0.7-25.4-1.5-38.1-2.2
		c-1.2-0.1-2.5-0.4-3.6-0.9c-24.8-11.3-49.5-22.6-74.2-33.9c-1.7-0.8-2.5-1.7-2.7-3.7c-1-10.7-2.1-21.4-3.4-32
		c-0.3-2.3,0.2-3.2,2.6-3.7c23.2-4.8,46.4-9.7,69.7-14.5c1.7-0.4,3.5-0.1,5.2-0.1c26.8,1.4,53.5,2.9,80.3,4.4
		c1.2,0.1,2.6,0.5,3.7,1.3c13.4,9.6,26.7,19.3,40,29.1c0.8,0.6,1.6,1.8,1.8,2.8c3.7,19.1,7.3,38.3,10.9,57.4
		C226.5,221.9,226.4,222.3,226.4,223.1"/>
	<path class="st1" d="M226.4,223.1c-9.8-0.6-19.2-1.1-28.7-1.6c-21.1-1.2-42.2-2.4-63.3-3.7c-12.7-0.7-25.4-1.5-38.1-2.2
		c-1.2-0.1-2.5-0.4-3.6-0.9c-24.8-11.3-49.5-22.6-74.2-33.9c-1.7-0.8-2.5-1.7-2.7-3.7c-1-10.7-2.1-21.4-3.4-32
		c-0.3-2.3,0.2-3.2,2.6-3.7c23.2-4.8,46.4-9.7,69.7-14.5c1.7-0.4,3.5-0.1,5.2-0.1c26.8,1.4,53.5,2.9,80.3,4.4
		c1.2,0.1,2.6,0.5,3.7,1.3c13.4,9.6,26.7,19.3,40,29.1c0.8,0.6,1.6,1.8,1.8,2.8c3.7,19.1,7.3,38.3,10.9,57.4
		C226.5,221.9,226.4,222.3,226.4,223.1"/>
</g>
<g>
	<g>
		<g>
			<defs>
				
					<rect id="SVGID_1_" x="97.8" y="57.1" transform="matrix(5.230164e-02 -0.9986 0.9986 5.230164e-02 -12.467 299.0893)" width="107" height="198"/>
			</defs>
			<clipPath id="SVGID_00000107578160589853592970000016437837763013461938_">
				<use xlink:href="#SVGID_1_"  style="overflow:visible;"/>
			</clipPath>
			<g style="clip-path:url(#SVGID_00000107578160589853592970000016437837763013461938_);">
				<text transform="matrix(0.9986 5.230164e-02 -5.230164e-02 0.9986 50.6328 186.385)" class="st4 st5">cherry</text>
			</g>
		</g>
	</g>
</g>
<g>
	<g>
		<g>
			<defs>
				<polygon id="SVGID_00000166658657646263743550000002847021266988553106_" points="157.2,25.9 168.2,51.2 227.5,25.4 259.7,99.3 
					122,159.3 112.9,138.5 49.2,166.3 15,87.9 				"/>
			</defs>
			<clipPath id="SVGID_00000110437059464965234720000008502946681094010524_">
				<use xlink:href="#SVGID_00000166658657646263743550000002847021266988553106_"  style="overflow:visible;"/>
			</clipPath>
			<g style="clip-path:url(#SVGID_00000110437059464965234720000008502946681094010524_);enable-background:new    ;">
				<g>
					<g>
						<defs>
							
								<rect id="SVGID_00000172411879655961608540000007882662879684078996_" x="-41.1" y="-91.8" transform="matrix(0.1642 -0.9864 0.9864 0.1642 20.0367 215.0895)" width="356" height="375"/>
						</defs>
						<clipPath id="SVGID_00000126301792744665998800000011141995112517891743_">
							<use xlink:href="#SVGID_00000172411879655961608540000007882662879684078996_"  style="overflow:visible;"/>
						</clipPath>
						<g style="clip-path:url(#SVGID_00000126301792744665998800000011141995112517891743_);">
							<g>
								<defs>
									
										<rect id="SVGID_00000072252588817581697250000009162149305688504471_" x="14.4" y="10.7" transform="matrix(0.9679 -0.2512 0.2512 0.9679 -19.6543 37.4674)" width="245" height="170"/>
								</defs>
								<clipPath id="SVGID_00000008866718931706768820000007212960371529804418_">
									<use xlink:href="#SVGID_00000072252588817581697250000009162149305688504471_"  style="overflow:visible;"/>
								</clipPath>
								
									<rect x="-10.5" y="-32.8" transform="matrix(0.9679 -0.2512 0.2512 0.9679 -19.6532 37.4669)" style="clip-path:url(#SVGID_00000008866718931706768820000007212960371529804418_);fill:#FFF900;" width="294.9" height="256.9"/>
							</g>
							<g>
								<defs>
									
										<rect id="SVGID_00000149341522670783302910000010260476470548567440_" x="51.9" y="-26.8" transform="matrix(0.1642 -0.9864 0.9864 0.1642 20.0367 215.0895)" width="170" height="245"/>
								</defs>
								<clipPath id="SVGID_00000031892984533780478500000006213519316590059681_">
									<use xlink:href="#SVGID_00000149341522670783302910000010260476470548567440_"  style="overflow:visible;"/>
								</clipPath>
								
									<polygon style="clip-path:url(#SVGID_00000031892984533780478500000006213519316590059681_);fill:none;stroke:#000000;stroke-width:4;stroke-miterlimit:5;" points="
									157.2,25.9 168.2,51.2 227.5,25.4 259.7,99.3 122,159.3 112.9,138.5 49.2,166.3 15,87.9 								"/>
							</g>
						</g>
					</g>
				</g>
			</g>
		</g>
	</g>
</g>
<g>
	<text transform="matrix(0.9406 -0.3394 0.3394 0.9406 71.9279 130.9843)" class="st4 st10">Vanilla</text>
</g>
<g>
	<g>
		<g>
			<defs>
				
					<rect id="SVGID_00000076593992904992778570000013708823355347944346_" x="106.2" y="167.6" transform="matrix(0.9703 -0.2419 0.2419 0.9703 -47.3794 56.2111)" width="198" height="107"/>
			</defs>
			<clipPath id="SVGID_00000022561607982147905860000000987577134842812585_">
				<use xlink:href="#SVGID_00000076593992904992778570000013708823355347944346_"  style="overflow:visible;"/>
			</clipPath>
			<g style="clip-path:url(#SVGID_00000022561607982147905860000000987577134842812585_);">
				<text transform="matrix(0.9703 -0.2419 0.2419 0.9703 117.7641 279.4496)" class="st4 st12">Cbd</text>
			</g>
		</g>
	</g>
</g>
</svg>
