<?xml version="1.0" encoding="utf-8"?>
<!-- Generator: Adobe Illustrator 27.0.1, SVG Export Plug-In . SVG Version: 6.00 Build 0)  -->
<svg version="1.1" id="Calque_1" xmlns="http://www.w3.org/2000/svg" xmlns:xlink="http://www.w3.org/1999/xlink" x="0px" y="0px"
	 viewBox="0 0 288.8 334.7" style="enable-background:new 0 0 288.8 334.7;" xml:space="preserve">
<style type="text/css">
	.st0{fill-rule:evenodd;clip-rule:evenodd;fill:#D6F4C8;}
	.st1{fill:none;stroke:#000000;stroke-width:2;stroke-miterlimit:10;}
	.st2{fill-rule:evenodd;clip-rule:evenodd;fill:#FFB0CA;}
	.st3{clip-path:url(#SVGID_00000055684283409998976830000008203189769865584795_);}
	.st4{font-family:'Helvetica-Light';}
	.st5{font-size:47.994px;}
	.st6{clip-path:url(#SVGID_00000135669755285174781010000006617913974609933706_);enable-background:new    ;}
	.st7{clip-path:url(#SVGID_00000109751185758831227590000014510447520434039980_);}
	
		.st8{clip-path:url(#SVGID_00000180339317455285943860000011942208342816113309_);fill:none;stroke:#000000;stroke-width:4;stroke-miterlimit:5;}
	.st9{fill:#FFF900;}
	.st10{font-size:44.9946px;}
	.st11{clip-path:url(#SVGID_00000091700364104286889370000003699318241870492569_);}
	.st12{font-size:48px;}
</style>
<g>
	<path class="st0" d="M256,298.8c-24.6,5.7-49.3,11.4-73.9,17.1c-3.2,0.7-3.2,0.7-3.9-2.5c-1.2-5.4-2.5-10.9-3.8-16.3
		c-0.2-0.9-0.4-1.7-0.7-3c-1.4,0.3-2.5,0.6-3.6,0.8c-25.2,5.8-50.4,11.6-75.6,17.5c-2.5,0.6-3.3,0-3.8-2.5
		c-2.5-11.2-5.2-22.4-7.6-33.6c-0.5-2.4-1.4-2.8-3.7-2.2c-5.7,1.5-11.5,2.6-17.3,4.1c-1.8,0.4-2.5,0-2.9-1.8
		c-3.1-13.8-6.3-27.6-9.6-41.3c-0.6-2.5,0.7-2.7,2.5-3.1c32.9-7.6,65.8-15.2,98.8-22.8c31.2-7.2,62.4-14.4,93.6-21.6
		c3.3-0.8,3.3-0.8,4.1,2.5c6.1,26.4,12.2,52.9,18.4,79.3c0.6,2.4,0.2,3.5-2.4,3.9c-2.7,0.4-5.3,1.3-8,1.8c-1.9,0.3-2.4,1.1-1.9,3
		c1.4,5.7,2.7,11.5,4,17.3c0.2,0.8,0.4,1.6,0.6,2.6C257.8,298.3,256.9,298.6,256,298.8z"/>
	<path class="st1" d="M256,298.8c-24.6,5.7-49.3,11.4-73.9,17.1c-3.2,0.7-3.2,0.7-3.9-2.5c-1.2-5.4-2.5-10.9-3.8-16.3
		c-0.2-0.9-0.4-1.7-0.7-3c-1.4,0.3-2.5,0.6-3.6,0.8c-25.2,5.8-50.4,11.6-75.6,17.5c-2.5,0.6-3.3,0-3.8-2.5
		c-2.5-11.2-5.2-22.4-7.6-33.6c-0.5-2.4-1.4-2.8-3.7-2.2c-5.7,1.5-11.5,2.6-17.3,4.1c-1.8,0.4-2.5,0-2.9-1.8
		c-3.1-13.8-6.3-27.6-9.6-41.3c-0.6-2.5,0.7-2.7,2.5-3.1c32.9-7.6,65.8-15.2,98.8-22.8c31.2-7.2,62.4-14.4,93.6-21.6
		c3.3-0.8,3.3-0.8,4.1,2.5c6.1,26.4,12.2,52.9,18.4,79.3c0.6,2.4,0.2,3.5-2.4,3.9c-2.7,0.4-5.3,1.3-8,1.8c-1.9,0.3-2.4,1.1-1.9,3
		c1.4,5.7,2.7,11.5,4,17.3c0.2,0.8,0.4,1.6,0.6,2.6C257.8,298.3,256.9,298.6,256,298.8z"/>
	<path class="st2" d="M226.4,223.1c-9.8-0.6-19.2-1.1-28.7-1.6c-21.1-1.2-42.2-2.4-63.3-3.7c-12.7-0.7-25.4-1.5-38.1-2.2
		c-1.2-0.1-2.5-0.4-3.6-0.9c-24.8-11.3-49.5-22.6-74.2-33.9c-1.7-0.8-2.5-1.7-2.7-3.7c-1-10.7-2.1-21.4-3.4-32
		c-0.3-2.3,0.2-3.2,2.6-3.7c23.2-4.8,46.4-9.7,69.7-14.5c1.7-0.4,3.5-0.1,5.2-0.1c26.8,1.4,53.5,2.9,80.3,4.4
		c1.2,0.1,2.6,0.5,3.7,1.3c13.4,9.6,26.7,19.3,40,29.1c0.8,0.6,1.6,1.8,1.8,2.8c3.7,19.1,7.3,38.3,10.9,57.4
		C226.5,221.9,226.4,222.3,226.4,223.1"/>
	<path class="st1" d="M226.4,223.1c-9.8-0.6-19.2-1.1-28.7-1.6c-21.1-1.2-42.2-2.4-63.3-3.7c-12.7-0.7-25.4-1.5-38.1-2.2
		c-1.2-0.1-2.5-0.4-3.6-0.9c-24.8-11.3-49.5-22.6-74.2-33.9c-1.7-0.8-2.5-1.7-2.7-3.7c-1-10.7-2.1-21.4-3.4-32
		c-0.3-2.3,0.2-3.2,2.6-3.7c23.2-4.8,46.4-9.7,69.7-14.5c1.7-0.4,3.5-0.1,5.2-0.1c26.8,1.4,53.5,2.9,80.3,4.4
		c1.2,0.1,2.6,0.5,3.7,1.3c13.4,9.6,26.7,19.3,40,29.1c0.8,0.6,1.6,1.8,1.8,2.8c3.7,19.1,7.3,38.3,10.9,57.4
		C226.5,221.9,226.4,222.3,226.4,223.1"/>
</g>
<g>
	<g>
		<g>
			<g>
				<g>
					<g>
						<defs>
							
								<rect id="SVGID_1_" x="97.9" y="57.2" transform="matrix(5.230654e-02 -0.9986 0.9986 5.230654e-02 -12.5095 299.1387)" width="107" height="198"/>
						</defs>
						<clipPath id="SVGID_00000070111277841634888730000012021915216368482435_">
							<use xlink:href="#SVGID_1_"  style="overflow:visible;"/>
						</clipPath>
						<g style="clip-path:url(#SVGID_00000070111277841634888730000012021915216368482435_);">
							<text transform="matrix(0.9986 5.230654e-02 -5.230654e-02 0.9986 50.6331 186.3849)" class="st4 st5">cherry</text>
						</g>
					</g>
				</g>
			</g>
		</g>
	</g>
</g>
<g>
	<g>
		<g>
			<g>
				<g>
					<g>
						<defs>
							<polygon id="SVGID_00000008853694053050619670000005053774778926618804_" points="157.2,25.9 168.2,51.2 227.5,25.4 
								259.7,99.3 122,159.3 112.9,138.5 49.2,166.3 15,87.9 							"/>
						</defs>
						<clipPath id="SVGID_00000016774705292982913410000007060943318220033723_">
							<use xlink:href="#SVGID_00000008853694053050619670000005053774778926618804_"  style="overflow:visible;"/>
						</clipPath>
						<g style="clip-path:url(#SVGID_00000016774705292982913410000007060943318220033723_);enable-background:new    ;">
							<g>
								<g>
									<g>
										<g>
											<g>
												<defs>
													
														<rect id="SVGID_00000062167600433238446550000009921617799145467781_" x="-41.1" y="-91.7" transform="matrix(0.1642 -0.9864 0.9864 0.1642 19.9229 215.1847)" width="356" height="375"/>
												</defs>
												<clipPath id="SVGID_00000062878304344846223960000006537399760633687971_">
													<use xlink:href="#SVGID_00000062167600433238446550000009921617799145467781_"  style="overflow:visible;"/>
												</clipPath>
												<g style="clip-path:url(#SVGID_00000062878304344846223960000006537399760633687971_);">
													<g>
														<g>
															<g>
																<g>
																	<defs>
																		
																			<rect id="SVGID_00000078046206944098308520000014734893706819749295_" x="14.4" y="10.7" transform="matrix(0.527 -0.8499 0.8499 0.527 -16.5842 161.6202)" width="245" height="170"/>
																	</defs>
																	<clipPath id="SVGID_00000030476351793168734750000013817266813668407466_">
																		<use xlink:href="#SVGID_00000078046206944098308520000014734893706819749295_"  style="overflow:visible;"/>
																	</clipPath>
																</g>
															</g>
														</g>
													</g>
													<g>
														<g>
															<g>
																<g>
																	<defs>
																		
																			<rect id="SVGID_00000070821719313436066150000012827881943317822397_" x="51.9" y="-26.7" transform="matrix(0.1642 -0.9864 0.9864 0.1642 19.9228 215.1848)" width="170" height="245"/>
																	</defs>
																	<clipPath id="SVGID_00000117642465664287564060000007201893144168640926_">
																		<use xlink:href="#SVGID_00000070821719313436066150000012827881943317822397_"  style="overflow:visible;"/>
																	</clipPath>
																	
																		<polygon style="clip-path:url(#SVGID_00000117642465664287564060000007201893144168640926_);fill:none;stroke:#000000;stroke-width:4;stroke-miterlimit:5;" points="
																		157.2,25.9 168.2,51.2 227.5,25.4 259.7,99.3 122,159.3 112.9,138.5 49.2,166.3 15,87.9 																	"/>
																</g>
															</g>
														</g>
													</g>
												</g>
											</g>
										</g>
									</g>
								</g>
							</g>
						</g>
					</g>
				</g>
			</g>
		</g>
	</g>
</g>
<polygon class="st9" points="17.6,88.9 50.2,163.7 113.9,135.9 123,156.7 257.1,98.3 226.5,28 167.2,53.8 156.2,28.5 "/>
<g>
	<text transform="matrix(0.9406 -0.3394 0.3394 0.9406 71.9294 130.9869)" class="st4 st10">Vanilla</text>
</g>
<g>
	<g>
		<g>
			<g>
				<g>
					<g>
						<defs>
							
								<rect id="SVGID_00000135653341108569968590000005596498300584806040_" x="106.2" y="167.6" transform="matrix(0.9703 -0.2419 0.2419 0.9703 -47.3899 56.2041)" width="198" height="107"/>
						</defs>
						<clipPath id="SVGID_00000173130611354851896700000016107188597677377203_">
							<use xlink:href="#SVGID_00000135653341108569968590000005596498300584806040_"  style="overflow:visible;"/>
						</clipPath>
						<g style="clip-path:url(#SVGID_00000173130611354851896700000016107188597677377203_);">
							<text transform="matrix(0.9703 -0.2419 0.2419 0.9703 117.7641 279.4496)" class="st4 st12">Cbd</text>
						</g>
					</g>
				</g>
			</g>
		</g>
	</g>
</g>
</svg>
