<?xml version="1.0" encoding="utf-8"?>
<!-- Generator: Adobe Illustrator 27.0.1, SVG Export Plug-In . SVG Version: 6.00 Build 0)  -->
<svg version="1.1" id="Calque_1" xmlns="http://www.w3.org/2000/svg" xmlns:xlink="http://www.w3.org/1999/xlink" x="0px" y="0px"
	 viewBox="0 0 288.8 334.7" style="enable-background:new 0 0 288.8 334.7;" xml:space="preserve">
<style type="text/css">
	.st0{fill-rule:evenodd;clip-rule:evenodd;fill:#D6F4C8;}
	.st1{fill:none;stroke:#000000;stroke-width:2;stroke-miterlimit:10;}
	.st2{fill-rule:evenodd;clip-rule:evenodd;fill:#FFB0CA;}
	.st3{clip-path:url(#SVGID_00000154390766957445369520000015559472893205147824_);}
	.st4{font-family:'Helvetica-Light';}
	.st5{font-size:47.997px;}
	.st6{clip-path:url(#SVGID_00000086663695236199413720000013968356794906339242_);enable-background:new    ;}
	.st7{clip-path:url(#SVGID_00000117648028108169988480000012007305671275559813_);}
	.st8{clip-path:url(#SVGID_00000021817258686985982500000012790241306187565962_);fill:#FFF900;}
	
		.st9{clip-path:url(#SVGID_00000065047468660721606010000011549521078324716458_);fill:none;stroke:#000000;stroke-width:4;stroke-miterlimit:5;}
	.st10{font-size:44.9982px;}
	.st11{clip-path:url(#SVGID_00000021096505471620019210000014594258395734645684_);}
	.st12{font-size:48px;}
</style>
<g>
	<path class="st0" d="M256,298.8c-24.6,5.7-49.3,11.4-73.9,17.1c-3.2,0.7-3.2,0.7-3.9-2.5c-1.2-5.4-2.5-10.9-3.8-16.3
		c-0.2-0.9-0.4-1.7-0.7-3c-1.4,0.3-2.5,0.6-3.6,0.8c-25.2,5.8-50.4,11.6-75.6,17.5c-2.5,0.6-3.3,0-3.8-2.5
		c-2.5-11.2-5.2-22.4-7.6-33.6c-0.5-2.4-1.4-2.8-3.7-2.2c-5.7,1.5-11.5,2.6-17.3,4.1c-1.8,0.4-2.5,0-2.9-1.8
		c-3.1-13.8-6.3-27.6-9.6-41.3c-0.6-2.5,0.7-2.7,2.5-3.1c32.9-7.6,65.8-15.2,98.8-22.8c31.2-7.2,62.4-14.4,93.6-21.6
		c3.3-0.8,3.3-0.8,4.1,2.5c6.1,26.4,12.2,52.9,18.4,79.3c0.6,2.4,0.2,3.5-2.4,3.9c-2.7,0.4-5.3,1.3-8,1.8c-1.9,0.3-2.4,1.1-1.9,3
		c1.4,5.7,2.7,11.5,4,17.3c0.2,0.8,0.4,1.6,0.6,2.6C257.8,298.3,256.9,298.6,256,298.8z"/>
	<path class="st1" d="M256,298.8c-24.6,5.7-49.3,11.4-73.9,17.1c-3.2,0.7-3.2,0.7-3.9-2.5c-1.2-5.4-2.5-10.9-3.8-16.3
		c-0.2-0.9-0.4-1.7-0.7-3c-1.4,0.3-2.5,0.6-3.6,0.8c-25.2,5.8-50.4,11.6-75.6,17.5c-2.5,0.6-3.3,0-3.8-2.5
		c-2.5-11.2-5.2-22.4-7.6-33.6c-0.5-2.4-1.4-2.8-3.7-2.2c-5.7,1.5-11.5,2.6-17.3,4.1c-1.8,0.4-2.5,0-2.9-1.8
		c-3.1-13.8-6.3-27.6-9.6-41.3c-0.6-2.5,0.7-2.7,2.5-3.1c32.9-7.6,65.8-15.2,98.8-22.8c31.2-7.2,62.4-14.4,93.6-21.6
		c3.3-0.8,3.3-0.8,4.1,2.5c6.1,26.4,12.2,52.9,18.4,79.3c0.6,2.4,0.2,3.5-2.4,3.9c-2.7,0.4-5.3,1.3-8,1.8c-1.9,0.3-2.4,1.1-1.9,3
		c1.4,5.7,2.7,11.5,4,17.3c0.2,0.8,0.4,1.6,0.6,2.6C257.8,298.3,256.9,298.6,256,298.8z"/>
	<path class="st2" d="M226.4,223.1c-9.8-0.6-19.2-1.1-28.7-1.6c-21.1-1.2-42.2-2.4-63.3-3.7c-12.7-0.7-25.4-1.5-38.1-2.2
		c-1.2-0.1-2.5-0.4-3.6-0.9c-24.8-11.3-49.5-22.6-74.2-33.9c-1.7-0.8-2.5-1.7-2.7-3.7c-1-10.7-2.1-21.4-3.4-32
		c-0.3-2.3,0.2-3.2,2.6-3.7c23.2-4.8,46.4-9.7,69.7-14.5c1.7-0.4,3.5-0.1,5.2-0.1c26.8,1.4,53.5,2.9,80.3,4.4
		c1.2,0.1,2.6,0.5,3.7,1.3c13.4,9.6,26.7,19.3,40,29.1c0.8,0.6,1.6,1.8,1.8,2.8c3.7,19.1,7.3,38.3,10.9,57.4
		C226.5,221.9,226.4,222.3,226.4,223.1"/>
	<path class="st1" d="M226.4,223.1c-9.8-0.6-19.2-1.1-28.7-1.6c-21.1-1.2-42.2-2.4-63.3-3.7c-12.7-0.7-25.4-1.5-38.1-2.2
		c-1.2-0.1-2.5-0.4-3.6-0.9c-24.8-11.3-49.5-22.6-74.2-33.9c-1.7-0.8-2.5-1.7-2.7-3.7c-1-10.7-2.1-21.4-3.4-32
		c-0.3-2.3,0.2-3.2,2.6-3.7c23.2-4.8,46.4-9.7,69.7-14.5c1.7-0.4,3.5-0.1,5.2-0.1c26.8,1.4,53.5,2.9,80.3,4.4
		c1.2,0.1,2.6,0.5,3.7,1.3c13.4,9.6,26.7,19.3,40,29.1c0.8,0.6,1.6,1.8,1.8,2.8c3.7,19.1,7.3,38.3,10.9,57.4
		C226.5,221.9,226.4,222.3,226.4,223.1"/>
</g>
<g>
	<g>
		<g>
			<g>
				<defs>
					
						<rect id="SVGID_1_" x="97.8" y="57.2" transform="matrix(5.230328e-02 -0.9986 0.9986 5.230328e-02 -12.5389 299.118)" width="107" height="198"/>
				</defs>
				<clipPath id="SVGID_00000142168385278044905730000005606409235078614451_">
					<use xlink:href="#SVGID_1_"  style="overflow:visible;"/>
				</clipPath>
				<g style="clip-path:url(#SVGID_00000142168385278044905730000005606409235078614451_);">
					<text transform="matrix(0.9986 5.230328e-02 -5.230328e-02 0.9986 50.633 186.3848)" class="st4 st5">cherry</text>
				</g>
			</g>
		</g>
	</g>
</g>
<g>
	<g>
		<g>
			<g>
				<defs>
					<polygon id="SVGID_00000041253103438497888900000011799217646422101413_" points="157.2,25.9 168.2,51.2 227.5,25.4 
						259.7,99.3 122,159.3 112.9,138.5 49.2,166.3 15,87.9 					"/>
				</defs>
				<clipPath id="SVGID_00000050661750146146567770000009120724631483474566_">
					<use xlink:href="#SVGID_00000041253103438497888900000011799217646422101413_"  style="overflow:visible;"/>
				</clipPath>
				<g style="clip-path:url(#SVGID_00000050661750146146567770000009120724631483474566_);enable-background:new    ;">
					<g>
						<g>
							<g>
								<defs>
									
										<rect id="SVGID_00000134943870569265436300000000544674226684592040_" x="-41.1" y="-91.7" transform="matrix(0.1642 -0.9864 0.9864 0.1642 19.9669 215.0959)" width="356" height="375"/>
								</defs>
								<clipPath id="SVGID_00000139984873497490993750000017657800586704908969_">
									<use xlink:href="#SVGID_00000134943870569265436300000000544674226684592040_"  style="overflow:visible;"/>
								</clipPath>
								<g style="clip-path:url(#SVGID_00000139984873497490993750000017657800586704908969_);">
									<g>
										<g>
											<defs>
												
													<rect id="SVGID_00000173148586054491287390000015434846376238828935_" x="14.4" y="10.7" transform="matrix(0.8738 -0.4863 0.4863 0.8738 -29.2698 78.6482)" width="245" height="170"/>
											</defs>
											<clipPath id="SVGID_00000057146997172682889280000011993165488790277509_">
												<use xlink:href="#SVGID_00000173148586054491287390000015434846376238828935_"  style="overflow:visible;"/>
											</clipPath>
											
												<rect x="-10.5" y="-32.8" transform="matrix(0.9679 -0.2512 0.2512 0.9679 -19.6359 37.4645)" style="clip-path:url(#SVGID_00000057146997172682889280000011993165488790277509_);fill:#FFF900;" width="294.9" height="256.9"/>
										</g>
									</g>
									<g>
										<g>
											<defs>
												
													<rect id="SVGID_00000141413168510577917240000009803277648484903614_" x="51.9" y="-26.7" transform="matrix(0.1642 -0.9864 0.9864 0.1642 19.9669 215.0959)" width="170" height="245"/>
											</defs>
											<clipPath id="SVGID_00000012466237163699196230000001542218499701938870_">
												<use xlink:href="#SVGID_00000141413168510577917240000009803277648484903614_"  style="overflow:visible;"/>
											</clipPath>
											
												<polygon style="clip-path:url(#SVGID_00000012466237163699196230000001542218499701938870_);fill:none;stroke:#000000;stroke-width:4;stroke-miterlimit:5;" points="
												157.2,25.9 168.2,51.2 227.5,25.4 259.7,99.3 122,159.3 112.9,138.5 49.2,166.3 15,87.9 											"/>
										</g>
									</g>
								</g>
							</g>
						</g>
					</g>
				</g>
			</g>
		</g>
	</g>
</g>
<g>
	<text transform="matrix(0.9406 -0.3394 0.3394 0.9406 71.9283 130.9852)" class="st4 st10">Vanilla</text>
</g>
<g>
	<g>
		<g>
			<g>
				<defs>
					
						<rect id="SVGID_00000047061357358952193310000017110352332499355826_" x="106.2" y="167.6" transform="matrix(0.9703 -0.2419 0.2419 0.9703 -47.3912 56.207)" width="198" height="107"/>
				</defs>
				<clipPath id="SVGID_00000008840807509062114310000004234078872219134870_">
					<use xlink:href="#SVGID_00000047061357358952193310000017110352332499355826_"  style="overflow:visible;"/>
				</clipPath>
				<g style="clip-path:url(#SVGID_00000008840807509062114310000004234078872219134870_);">
					<text transform="matrix(0.9703 -0.2419 0.2419 0.9703 117.7641 279.4496)" class="st4 st12">Cbd</text>
				</g>
			</g>
		</g>
	</g>
</g>
</svg>
