<?xml version="1.0" encoding="utf-8"?>
<!-- Generator: Adobe Illustrator 27.0.1, SVG Export Plug-In . SVG Version: 6.00 Build 0)  -->
<svg version="1.1" id="Calque_1" xmlns="http://www.w3.org/2000/svg" xmlns:xlink="http://www.w3.org/1999/xlink" x="0px" y="0px"
	 viewBox="0 0 288.84 334.66" style="enable-background:new 0 0 288.84 334.66;" xml:space="preserve">
<style type="text/css">
	.st0{fill-rule:evenodd;clip-rule:evenodd;fill:#D6F4C8;}
	.st1{fill:none;stroke:#000000;stroke-width:2;stroke-miterlimit:10;}
	.st2{fill-rule:evenodd;clip-rule:evenodd;fill:#FFB0CA;}
	.st3{clip-path:url(#SVGID_00000057833396570457841900000014173319939644586901_);}
	.st4{font-family:'Helvetica-Light';}
	.st5{font-size:48px;}
	.st6{clip-path:url(#SVGID_00000062191370543096122640000009312978431105524899_);enable-background:new    ;}
	.st7{clip-path:url(#SVGID_00000098915985707552975560000016805023889354385308_);}
	.st8{clip-path:url(#SVGID_00000080887959390767067890000012087274746735508884_);fill:#FFF900;}
	
		.st9{clip-path:url(#SVGID_00000080887959390767067890000012087274746735508884_);fill:none;stroke:#000000;stroke-width:4;stroke-miterlimit:5;}
	.st10{font-size:45px;}
	.st11{clip-path:url(#SVGID_00000155854952439631318580000006862807206043093400_);}
</style>
<g>
	<path class="st0" d="M254.89,312.42c-24.64,5.7-49.29,11.39-73.94,17.07c-3.18,0.73-3.18,0.72-3.91-2.46
		c-1.25-5.43-2.51-10.86-3.76-16.29c-0.2-0.87-0.4-1.74-0.68-2.95c-1.41,0.33-2.52,0.58-3.63,0.84
		c-25.21,5.82-50.43,11.6-75.63,17.51c-2.5,0.59-3.29-0.01-3.83-2.45c-2.46-11.22-5.18-22.37-7.64-33.59
		c-0.53-2.42-1.45-2.84-3.73-2.25c-5.72,1.48-11.51,2.65-17.25,4.07c-1.8,0.44-2.52-0.01-2.93-1.82
		c-3.13-13.79-6.28-27.58-9.58-41.34c-0.6-2.49,0.7-2.74,2.46-3.15c32.92-7.57,65.83-15.18,98.75-22.78
		c31.21-7.2,62.42-14.41,93.64-21.62c3.31-0.76,3.32-0.76,4.08,2.54c6.1,26.43,12.17,52.87,18.36,79.28
		c0.57,2.42,0.22,3.49-2.37,3.86c-2.71,0.39-5.34,1.29-8.04,1.77c-1.9,0.34-2.44,1.07-1.94,3.03c1.45,5.73,2.7,11.5,4.03,17.26
		c0.18,0.79,0.37,1.58,0.59,2.57C256.77,311.87,255.84,312.2,254.89,312.42z"/>
	<path class="st1" d="M254.89,312.42c-24.64,5.7-49.29,11.39-73.94,17.07c-3.18,0.73-3.18,0.72-3.91-2.46
		c-1.25-5.43-2.51-10.86-3.76-16.29c-0.2-0.87-0.4-1.74-0.68-2.95c-1.41,0.33-2.52,0.58-3.63,0.84
		c-25.21,5.82-50.43,11.6-75.63,17.51c-2.5,0.59-3.29-0.01-3.83-2.45c-2.46-11.22-5.18-22.37-7.64-33.59
		c-0.53-2.42-1.45-2.84-3.73-2.25c-5.72,1.48-11.51,2.65-17.25,4.07c-1.8,0.44-2.52-0.01-2.93-1.82
		c-3.13-13.79-6.28-27.58-9.58-41.34c-0.6-2.49,0.7-2.74,2.46-3.15c32.92-7.57,65.83-15.18,98.75-22.78
		c31.21-7.2,62.42-14.41,93.64-21.62c3.31-0.76,3.32-0.76,4.08,2.54c6.1,26.43,12.17,52.87,18.36,79.28
		c0.57,2.42,0.22,3.49-2.37,3.86c-2.71,0.39-5.34,1.29-8.04,1.77c-1.9,0.34-2.44,1.07-1.94,3.03c1.45,5.73,2.7,11.5,4.03,17.26
		c0.18,0.79,0.37,1.58,0.59,2.57C256.77,311.87,255.84,312.2,254.89,312.42z"/>
	<path class="st2" d="M221.3,228.67c-9.77-0.56-19.23-1.1-28.68-1.64c-21.1-1.22-42.2-2.45-63.3-3.68
		c-12.71-0.74-25.42-1.46-38.13-2.25c-1.22-0.08-2.49-0.39-3.59-0.89c-24.76-11.29-49.49-22.63-74.25-33.91
		c-1.72-0.78-2.49-1.74-2.67-3.68c-1.02-10.69-2.14-21.37-3.37-32.04c-0.26-2.27,0.25-3.22,2.6-3.71
		c23.23-4.79,46.43-9.72,69.66-14.53c1.67-0.35,3.47-0.14,5.21-0.05c26.76,1.42,53.52,2.85,80.28,4.35
		c1.25,0.07,2.65,0.54,3.66,1.26c13.36,9.63,26.68,19.33,39.96,29.08c0.84,0.61,1.6,1.75,1.8,2.75c3.68,19.12,7.27,38.26,10.86,57.4
		C221.4,227.52,221.32,227.93,221.3,228.67"/>
	<path class="st1" d="M221.3,228.67c-9.77-0.56-19.23-1.1-28.68-1.64c-21.1-1.22-42.2-2.45-63.3-3.68
		c-12.71-0.74-25.42-1.46-38.13-2.25c-1.22-0.08-2.49-0.39-3.59-0.89c-24.76-11.29-49.49-22.63-74.25-33.91
		c-1.72-0.78-2.49-1.74-2.67-3.68c-1.02-10.69-2.14-21.37-3.37-32.04c-0.26-2.27,0.25-3.22,2.6-3.71
		c23.23-4.79,46.43-9.72,69.66-14.53c1.67-0.35,3.47-0.14,5.21-0.05c26.76,1.42,53.52,2.85,80.28,4.35
		c1.25,0.07,2.65,0.54,3.66,1.26c13.36,9.63,26.68,19.33,39.96,29.08c0.84,0.61,1.6,1.75,1.8,2.75c3.68,19.12,7.27,38.26,10.86,57.4
		C221.4,227.52,221.32,227.93,221.3,228.67"/>
</g>
<g>
	<g>
		<defs>
			
				<rect id="SVGID_1_" x="92.78" y="62.7" transform="matrix(0.0523 -0.9986 0.9986 0.0523 -22.8501 299.3132)" width="107" height="198"/>
		</defs>
		<clipPath id="SVGID_00000088849041550013227920000005247051215912478135_">
			<use xlink:href="#SVGID_1_"  style="overflow:visible;"/>
		</clipPath>
		<g style="clip-path:url(#SVGID_00000088849041550013227920000005247051215912478135_);">
			<text transform="matrix(0.9986 0.0523 -0.0523 0.9986 45.558 191.9662)" class="st4 st5">Cerise</text>
		</g>
	</g>
</g>
<g>
	<g>
		<defs>
			<polygon id="SVGID_00000101105380099876628860000017015742184631915659_" points="164.88,19.83 179.89,42.96 234.14,7.73 
				278.04,75.33 152.06,157.14 139.7,138.11 81.36,176 34.8,104.31 			"/>
		</defs>
		<clipPath id="SVGID_00000137098921338771017610000006957621670741014423_">
			<use xlink:href="#SVGID_00000101105380099876628860000017015742184631915659_"  style="overflow:visible;"/>
		</clipPath>
		<g style="clip-path:url(#SVGID_00000137098921338771017610000006957621670741014423_);enable-background:new    ;">
			<g>
				<defs>
					<rect id="SVGID_00000031915453682434630850000013192018705029504425_" x="-31.15" y="-86.01" width="375" height="356"/>
				</defs>
				<clipPath id="SVGID_00000039112443355332163450000007177436245923206313_">
					<use xlink:href="#SVGID_00000031915453682434630850000013192018705029504425_"  style="overflow:visible;"/>
				</clipPath>
				<g style="clip-path:url(#SVGID_00000039112443355332163450000007177436245923206313_);">
					<defs>
						<rect id="SVGID_00000082343291333755633050000003448165561433884838_" x="33.85" y="6.99" width="245" height="170"/>
					</defs>
					<clipPath id="SVGID_00000054236560367303019130000015902928059409413507_">
						<use xlink:href="#SVGID_00000082343291333755633050000003448165561433884838_"  style="overflow:visible;"/>
					</clipPath>
					
						<rect x="8.87" y="-36.49" transform="matrix(0.9135 -0.4067 0.4067 0.9135 -23.8983 71.5457)" style="clip-path:url(#SVGID_00000054236560367303019130000015902928059409413507_);fill:#FFF900;" width="294.96" height="256.95"/>
					
						<polygon style="clip-path:url(#SVGID_00000054236560367303019130000015902928059409413507_);fill:none;stroke:#000000;stroke-width:4;stroke-miterlimit:5;" points="
						164.88,19.83 179.89,42.96 234.14,7.73 278.04,75.33 152.06,157.14 139.7,138.11 81.36,176 34.8,104.31 					"/>
				</g>
			</g>
		</g>
	</g>
</g>
<g>
	<text transform="matrix(0.8387 -0.5446 0.5446 0.8387 101.6831 145.7431)" class="st4 st10">Vanille</text>
</g>
<g>
	<g>
		<defs>
			
				<rect id="SVGID_00000076602395893584941590000001717999300420619962_" x="106.73" y="183.63" transform="matrix(0.9703 -0.2419 0.2419 0.9703 -51.2555 56.8139)" width="198" height="107"/>
		</defs>
		<clipPath id="SVGID_00000148658438497007499880000013199138756192142978_">
			<use xlink:href="#SVGID_00000076602395893584941590000001717999300420619962_"  style="overflow:visible;"/>
		</clipPath>
		<g style="clip-path:url(#SVGID_00000148658438497007499880000013199138756192142978_);">
			<text transform="matrix(0.9703 -0.2419 0.2419 0.9703 118.2574 295.524)" class="st4 st5">Cbd</text>
		</g>
	</g>
</g>
</svg>
