<?xml version="1.0" encoding="UTF-8"?>
<svg width="374px" height="374px" viewBox="0 0 374 374" version="1.1" xmlns="http://www.w3.org/2000/svg" xmlns:xlink="http://www.w3.org/1999/xlink">
    <title>Group 4</title>
    <g id="Page-1" stroke="none" stroke-width="1" fill="none" fill-rule="evenodd">
        <g id="Large-Devices:-Desktops---12-col-Copy-3" transform="translate(-175.000000, -896.000000)">
            <g id="Group-4" transform="translate(362.545000, 1082.857000) rotate(48.000000) translate(-362.545000, -1082.857000) translate(237.000000, 957.000000)">
                <polygon id="Fill-1" fill="#C8CEF4" points="199.799 230.233 143.501 186.349 114.819 251.714 99.9 181.91 35.912 213.546 69.353 150.483 0 133.587 66.154 106.773 23.887 49.251 91.799 71.233 96.395 0 134.289 60.492 183.598 8.879 173.742 79.577 244.691 71.734 191.698 119.556 251.09 159.153 179.755 161.724"></polygon>
                <polygon id="Stroke-2" stroke="#1D1D1B" stroke-width="4" points="199.799 230.233 143.501 186.349 114.819 251.714 99.9 181.91 35.912 213.546 69.353 150.483 0 133.587 66.154 106.773 23.887 49.251 91.799 71.233 96.395 0 134.289 60.492 183.598 8.879 173.742 79.577 244.691 71.734 191.698 119.556 251.09 159.153 179.755 161.724"></polygon>
            </g>
        </g>
    </g>
</svg>